<?xml version="1.0" encoding="UTF-8" standalone="no"?>
<!DOCTYPE svg PUBLIC "-//W3C//DTD SVG 1.1//EN"
 "http://www.w3.org/Graphics/SVG/1.1/DTD/svg11.dtd">
<!-- Generated by graphviz version 2.43.0 (0)
 -->
<!-- Title: mission Pages: 1 -->
<svg width="1349pt" height="495pt"
 viewBox="0.00 0.00 1349.26 494.51" xmlns="http://www.w3.org/2000/svg" xmlns:xlink="http://www.w3.org/1999/xlink">
<g id="graph0" class="graph" transform="scale(1 1) rotate(0) translate(4 490.51)">
<title>mission</title>
<polygon fill="white" stroke="transparent" points="-4,4 -4,-490.51 1345.26,-490.51 1345.26,4 -4,4"/>
<!-- Mission -->
<g id="node1" class="node">
<title>Mission</title>
<polygon fill="gold" stroke="black" points="469.49,-486.51 384.28,-486.51 362.36,-450.51 447.57,-450.51 469.49,-486.51"/>
<text text-anchor="middle" x="415.92" y="-465.71" font-family="Times,serif" font-size="11.00">Mission</text>
</g>
<!-- Topics2BB -->
<g id="node2" class="node">
<title>Topics2BB</title>
<polygon fill="orange" stroke="black" points="329.42,-414.51 254.42,-414.51 254.42,-378.51 329.42,-378.51 329.42,-414.51"/>
<text text-anchor="middle" x="291.92" y="-393.71" font-family="Times,serif" font-size="11.00">Topics2BB</text>
</g>
<!-- Mission&#45;&gt;Topics2BB -->
<g id="edge1" class="edge">
<title>Mission&#45;&gt;Topics2BB</title>
<path fill="none" stroke="black" d="M385.59,-450.39C369.23,-441.15 348.84,-429.64 331.27,-419.72"/>
<polygon fill="black" stroke="black" points="332.8,-416.57 322.37,-414.7 329.36,-422.66 332.8,-416.57"/>
</g>
<!-- Priorities -->
<g id="node7" class="node">
<title>Priorities</title>
<polygon fill="cyan" stroke="black" points="585.55,-389.05 585.55,-403.97 558.82,-414.51 521.03,-414.51 494.3,-403.97 494.3,-389.05 521.03,-378.51 558.82,-378.51 585.55,-389.05"/>
<text text-anchor="middle" x="539.92" y="-393.71" font-family="Times,serif" font-size="11.00">Priorities</text>
</g>
<!-- Mission&#45;&gt;Priorities -->
<g id="edge6" class="edge">
<title>Mission&#45;&gt;Priorities</title>
<path fill="none" stroke="black" d="M446.26,-450.39C464.13,-440.3 486.79,-427.5 505.35,-417.03"/>
<polygon fill="black" stroke="black" points="507.11,-420.06 514.09,-412.09 503.66,-413.96 507.11,-420.06"/>
</g>
<!-- WorldPos2BB -->
<g id="node3" class="node">
<title>WorldPos2BB</title>
<ellipse fill="gray" stroke="black" cx="55.92" cy="-324.51" rx="55.85" ry="18"/>
<text text-anchor="middle" x="55.92" y="-321.71" font-family="Times,serif" font-size="11.00">WorldPos2BB</text>
</g>
<!-- Topics2BB&#45;&gt;WorldPos2BB -->
<g id="edge2" class="edge">
<title>Topics2BB&#45;&gt;WorldPos2BB</title>
<path fill="none" stroke="black" d="M254.27,-384.34C213.98,-372.39 149.9,-353.38 105.52,-340.22"/>
<polygon fill="black" stroke="black" points="106.39,-336.83 95.81,-337.34 104.4,-343.54 106.39,-336.83"/>
</g>
<!-- Map2BB -->
<g id="node4" class="node">
<title>Map2BB</title>
<ellipse fill="gray" stroke="black" cx="168.92" cy="-324.51" rx="39.17" ry="18"/>
<text text-anchor="middle" x="168.92" y="-321.71" font-family="Times,serif" font-size="11.00">Map2BB</text>
</g>
<!-- Topics2BB&#45;&gt;Map2BB -->
<g id="edge3" class="edge">
<title>Topics2BB&#45;&gt;Map2BB</title>
<path fill="none" stroke="black" d="M261.84,-378.39C243.5,-367.95 220.07,-354.62 201.33,-343.95"/>
<polygon fill="black" stroke="black" points="202.97,-340.86 192.55,-338.95 199.51,-346.94 202.97,-340.86"/>
</g>
<!-- VictimFound2BB -->
<g id="node5" class="node">
<title>VictimFound2BB</title>
<ellipse fill="gray" stroke="black" cx="291.92" cy="-324.51" rx="66.29" ry="18"/>
<text text-anchor="middle" x="291.92" y="-321.71" font-family="Times,serif" font-size="11.00">VictimFound2BB</text>
</g>
<!-- Topics2BB&#45;&gt;VictimFound2BB -->
<g id="edge4" class="edge">
<title>Topics2BB&#45;&gt;VictimFound2BB</title>
<path fill="none" stroke="black" d="M291.92,-378.21C291.92,-370.49 291.92,-361.22 291.92,-352.62"/>
<polygon fill="black" stroke="black" points="295.42,-352.61 291.92,-342.61 288.42,-352.61 295.42,-352.61"/>
</g>
<!-- Battery2BB -->
<g id="node6" class="node">
<title>Battery2BB</title>
<ellipse fill="gray" stroke="black" cx="424.92" cy="-324.51" rx="49.12" ry="18"/>
<text text-anchor="middle" x="424.92" y="-321.71" font-family="Times,serif" font-size="11.00">Battery2BB</text>
</g>
<!-- Topics2BB&#45;&gt;Battery2BB -->
<g id="edge5" class="edge">
<title>Topics2BB&#45;&gt;Battery2BB</title>
<path fill="none" stroke="black" d="M324.46,-378.39C344.07,-368.07 369.06,-354.91 389.21,-344.31"/>
<polygon fill="black" stroke="black" points="390.87,-347.39 398.09,-339.63 387.61,-341.19 390.87,-347.39"/>
</g>
<!-- Battery check -->
<g id="node8" class="node">
<title>Battery check</title>
<polygon fill="orange" stroke="black" points="587.42,-342.51 492.42,-342.51 492.42,-306.51 587.42,-306.51 587.42,-342.51"/>
<text text-anchor="middle" x="539.92" y="-321.71" font-family="Times,serif" font-size="11.00">Battery check</text>
</g>
<!-- Priorities&#45;&gt;Battery check -->
<g id="edge7" class="edge">
<title>Priorities&#45;&gt;Battery check</title>
<path fill="none" stroke="black" d="M539.92,-378.21C539.92,-370.49 539.92,-361.22 539.92,-352.62"/>
<polygon fill="black" stroke="black" points="543.42,-352.61 539.92,-342.61 536.42,-352.61 543.42,-352.61"/>
</g>
<!-- Search &amp; rescue victim -->
<g id="node14" class="node">
<title>Search &amp; rescue victim</title>
<polygon fill="orange" stroke="black" points="795.42,-342.51 646.42,-342.51 646.42,-306.51 795.42,-306.51 795.42,-342.51"/>
<text text-anchor="middle" x="720.92" y="-321.71" font-family="Times,serif" font-size="11.00">Search &amp; rescue victim</text>
</g>
<!-- Priorities&#45;&gt;Search &amp; rescue victim -->
<g id="edge13" class="edge">
<title>Priorities&#45;&gt;Search &amp; rescue victim</title>
<path fill="none" stroke="black" d="M571.45,-383.32C597.89,-373.09 636.21,-358.27 667.44,-346.2"/>
<polygon fill="black" stroke="black" points="668.81,-349.42 676.88,-342.54 666.29,-342.89 668.81,-349.42"/>
</g>
<!-- Battery low? -->
<g id="node9" class="node">
<title>Battery low?</title>
<ellipse fill="gray" stroke="black" cx="423.92" cy="-247.88" rx="53.54" ry="18"/>
<text text-anchor="middle" x="423.92" y="-245.08" font-family="Times,serif" font-size="11.00">Battery low?</text>
</g>
<!-- Battery check&#45;&gt;Battery low? -->
<g id="edge8" class="edge">
<title>Battery check&#45;&gt;Battery low?</title>
<path fill="none" stroke="black" d="M513.31,-306.39C496.3,-295.44 474.12,-281.18 456.12,-269.59"/>
<polygon fill="black" stroke="black" points="457.96,-266.62 447.66,-264.15 454.17,-272.5 457.96,-266.62"/>
</g>
<!-- Return home -->
<g id="node10" class="node">
<title>Return home</title>
<polygon fill="orange" stroke="black" points="584.42,-265.88 495.42,-265.88 495.42,-229.88 584.42,-229.88 584.42,-265.88"/>
<text text-anchor="middle" x="539.92" y="-245.08" font-family="Times,serif" font-size="11.00">Return home</text>
</g>
<!-- Battery check&#45;&gt;Return home -->
<g id="edge9" class="edge">
<title>Battery check&#45;&gt;Return home</title>
<path fill="none" stroke="black" d="M539.92,-306.2C539.92,-297.35 539.92,-286.36 539.92,-276.38"/>
<polygon fill="black" stroke="black" points="543.42,-276.1 539.92,-266.1 536.42,-276.1 543.42,-276.1"/>
</g>
<!-- Fly home -->
<g id="node11" class="node">
<title>Fly home</title>
<ellipse fill="gray" stroke="black" cx="433.92" cy="-171.25" rx="40.78" ry="18"/>
<text text-anchor="middle" x="433.92" y="-168.45" font-family="Times,serif" font-size="11.00">Fly home</text>
</g>
<!-- Return home&#45;&gt;Fly home -->
<g id="edge10" class="edge">
<title>Return home&#45;&gt;Fly home</title>
<path fill="none" stroke="black" d="M515.61,-229.76C499.99,-218.77 479.62,-204.43 463.13,-192.82"/>
<polygon fill="black" stroke="black" points="465.1,-189.92 454.91,-187.03 461.07,-195.65 465.1,-189.92"/>
</g>
<!-- Land home -->
<g id="node12" class="node">
<title>Land home</title>
<ellipse fill="gray" stroke="black" cx="539.92" cy="-171.25" rx="47.51" ry="18"/>
<text text-anchor="middle" x="539.92" y="-168.45" font-family="Times,serif" font-size="11.00">Land home</text>
</g>
<!-- Return home&#45;&gt;Land home -->
<g id="edge11" class="edge">
<title>Return home&#45;&gt;Land home</title>
<path fill="none" stroke="black" d="M539.92,-229.57C539.92,-220.72 539.92,-209.73 539.92,-199.75"/>
<polygon fill="black" stroke="black" points="543.42,-199.47 539.92,-189.47 536.42,-199.47 543.42,-199.47"/>
</g>
<!-- Terminate -->
<g id="node13" class="node">
<title>Terminate</title>
<ellipse fill="gray" stroke="black" cx="649.92" cy="-171.25" rx="44.5" ry="18"/>
<text text-anchor="middle" x="649.92" y="-168.45" font-family="Times,serif" font-size="11.00">Terminate</text>
</g>
<!-- Return home&#45;&gt;Terminate -->
<g id="edge12" class="edge">
<title>Return home&#45;&gt;Terminate</title>
<path fill="none" stroke="black" d="M565.16,-229.76C581.36,-218.77 602.5,-204.43 619.61,-192.82"/>
<polygon fill="black" stroke="black" points="621.84,-195.54 628.15,-187.03 617.91,-189.75 621.84,-195.54"/>
</g>
<!-- Takeoff -->
<g id="node15" class="node">
<title>Takeoff</title>
<ellipse fill="gray" stroke="black" cx="636.92" cy="-247.88" rx="34.05" ry="18"/>
<text text-anchor="middle" x="636.92" y="-245.08" font-family="Times,serif" font-size="11.00">Takeoff</text>
</g>
<!-- Search &amp; rescue victim&#45;&gt;Takeoff -->
<g id="edge14" class="edge">
<title>Search &amp; rescue victim&#45;&gt;Takeoff</title>
<path fill="none" stroke="black" d="M701.44,-306.2C689.48,-295.58 674.06,-281.88 661.3,-270.54"/>
<polygon fill="black" stroke="black" points="663.55,-267.85 653.75,-263.83 658.9,-273.09 663.55,-267.85"/>
</g>
<!-- Condition\n[Search victim] -->
<g id="node16" class="node">
<title>Condition\n[Search victim]</title>
<ellipse fill="ghostwhite" stroke="black" cx="761.92" cy="-247.88" rx="72.66" ry="22.76"/>
<text text-anchor="middle" x="761.92" y="-251.08" font-family="Times,serif" font-size="11.00">Condition</text>
<text text-anchor="middle" x="761.92" y="-239.08" font-family="Times,serif" font-size="11.00">[Search victim]</text>
</g>
<!-- Search &amp; rescue victim&#45;&gt;Condition\n[Search victim] -->
<g id="edge15" class="edge">
<title>Search &amp; rescue victim&#45;&gt;Condition\n[Search victim]</title>
<path fill="none" stroke="black" d="M730.43,-306.2C734.83,-298.19 740.19,-288.44 745.23,-279.26"/>
<polygon fill="black" stroke="black" points="748.37,-280.82 750.12,-270.37 742.24,-277.45 748.37,-280.82"/>
</g>
<!-- Rescue victim -->
<g id="node25" class="node">
<title>Rescue victim</title>
<polygon fill="orange" stroke="black" points="1055.42,-265.88 960.42,-265.88 960.42,-229.88 1055.42,-229.88 1055.42,-265.88"/>
<text text-anchor="middle" x="1007.92" y="-245.08" font-family="Times,serif" font-size="11.00">Rescue victim</text>
</g>
<!-- Search &amp; rescue victim&#45;&gt;Rescue victim -->
<g id="edge24" class="edge">
<title>Search &amp; rescue victim&#45;&gt;Rescue victim</title>
<path fill="none" stroke="black" d="M786.41,-306.48C835.83,-293.63 903,-276.17 950.37,-263.85"/>
<polygon fill="black" stroke="black" points="951.37,-267.2 960.17,-261.3 949.61,-260.43 951.37,-267.2"/>
</g>
<!-- Search victim -->
<g id="node17" class="node">
<title>Search victim</title>
<polygon fill="orange" stroke="black" points="806.92,-189.25 712.92,-189.25 712.92,-153.25 806.92,-153.25 806.92,-189.25"/>
<text text-anchor="middle" x="759.92" y="-168.45" font-family="Times,serif" font-size="11.00">Search victim</text>
</g>
<!-- Condition\n[Search victim]&#45;&gt;Search victim -->
<g id="edge16" class="edge">
<title>Condition\n[Search victim]&#45;&gt;Search victim</title>
<path fill="none" stroke="black" d="M761.34,-224.9C761.12,-216.91 760.88,-207.8 760.65,-199.43"/>
<polygon fill="black" stroke="black" points="764.15,-199.26 760.38,-189.35 757.15,-199.44 764.15,-199.26"/>
</g>
<!-- Inverter\n[Victim found?] -->
<g id="node18" class="node">
<title>Inverter\n[Victim found?]</title>
<ellipse fill="ghostwhite" stroke="black" cx="561.92" cy="-94.63" rx="72.25" ry="22.76"/>
<text text-anchor="middle" x="561.92" y="-97.83" font-family="Times,serif" font-size="11.00">Inverter</text>
<text text-anchor="middle" x="561.92" y="-85.83" font-family="Times,serif" font-size="11.00">[Victim found?]</text>
</g>
<!-- Search victim&#45;&gt;Inverter\n[Victim found?] -->
<g id="edge17" class="edge">
<title>Search victim&#45;&gt;Inverter\n[Victim found?]</title>
<path fill="none" stroke="black" d="M714.5,-153.13C685.34,-142.14 647.32,-127.81 616.52,-116.21"/>
<polygon fill="black" stroke="black" points="617.39,-112.79 606.8,-112.54 614.92,-119.34 617.39,-112.79"/>
</g>
<!-- Path planning -->
<g id="node20" class="node">
<title>Path planning</title>
<polygon fill="cyan" stroke="black" points="820.49,-87.17 820.49,-102.08 785.01,-112.63 734.84,-112.63 699.36,-102.08 699.36,-87.17 734.84,-76.63 785.01,-76.63 820.49,-87.17"/>
<text text-anchor="middle" x="759.92" y="-91.83" font-family="Times,serif" font-size="11.00">Path planning</text>
</g>
<!-- Search victim&#45;&gt;Path planning -->
<g id="edge19" class="edge">
<title>Search victim&#45;&gt;Path planning</title>
<path fill="none" stroke="black" d="M759.92,-152.95C759.92,-144.09 759.92,-133.11 759.92,-123.13"/>
<polygon fill="black" stroke="black" points="763.42,-122.84 759.92,-112.84 756.42,-122.84 763.42,-122.84"/>
</g>
<!-- Move to next position -->
<g id="node24" class="node">
<title>Move to next position</title>
<ellipse fill="gray" stroke="black" cx="921.92" cy="-94.63" rx="83.67" ry="18"/>
<text text-anchor="middle" x="921.92" y="-91.83" font-family="Times,serif" font-size="11.00">Move to next position</text>
</g>
<!-- Search victim&#45;&gt;Move to next position -->
<g id="edge23" class="edge">
<title>Search victim&#45;&gt;Move to next position</title>
<path fill="none" stroke="black" d="M797.09,-153.13C821.44,-141.92 853.36,-127.21 878.83,-115.48"/>
<polygon fill="black" stroke="black" points="880.62,-118.51 888.24,-111.14 877.69,-112.15 880.62,-118.51"/>
</g>
<!-- Victim found? -->
<g id="node19" class="node">
<title>Victim found?</title>
<ellipse fill="gray" stroke="black" cx="468.92" cy="-18" rx="55.85" ry="18"/>
<text text-anchor="middle" x="468.92" y="-15.2" font-family="Times,serif" font-size="11.00">Victim found?</text>
</g>
<!-- Inverter\n[Victim found?]&#45;&gt;Victim found? -->
<g id="edge18" class="edge">
<title>Inverter\n[Victim found?]&#45;&gt;Victim found?</title>
<path fill="none" stroke="black" d="M536.51,-73.24C524.16,-63.32 509.29,-51.39 496.64,-41.24"/>
<polygon fill="black" stroke="black" points="498.69,-38.4 488.7,-34.87 494.31,-43.86 498.69,-38.4"/>
</g>
<!-- Dynamic planning -->
<g id="node21" class="node">
<title>Dynamic planning</title>
<ellipse fill="gray" stroke="black" cx="612.92" cy="-18" rx="70.21" ry="18"/>
<text text-anchor="middle" x="612.92" y="-15.2" font-family="Times,serif" font-size="11.00">Dynamic planning</text>
</g>
<!-- Path planning&#45;&gt;Dynamic planning -->
<g id="edge20" class="edge">
<title>Path planning&#45;&gt;Dynamic planning</title>
<path fill="none" stroke="black" d="M729.47,-78.16C707.02,-66.77 676.31,-51.18 652.04,-38.86"/>
<polygon fill="black" stroke="black" points="653.59,-35.72 643.09,-34.32 650.42,-41.96 653.59,-35.72"/>
</g>
<!-- Plan path to unexplored cell -->
<g id="node22" class="node">
<title>Plan path to unexplored cell</title>
<ellipse fill="gray" stroke="black" cx="806.92" cy="-18" rx="105.47" ry="18"/>
<text text-anchor="middle" x="806.92" y="-15.2" font-family="Times,serif" font-size="11.00">Plan path to unexplored cell</text>
</g>
<!-- Path planning&#45;&gt;Plan path to unexplored cell -->
<g id="edge21" class="edge">
<title>Path planning&#45;&gt;Plan path to unexplored cell</title>
<path fill="none" stroke="black" d="M770.83,-76.32C776.74,-66.93 784.17,-55.14 790.74,-44.69"/>
<polygon fill="black" stroke="black" points="793.88,-46.28 796.24,-35.96 787.95,-42.55 793.88,-46.28"/>
</g>
<!-- Plan path home -->
<g id="node23" class="node">
<title>Plan path home</title>
<ellipse fill="gray" stroke="black" cx="992.92" cy="-18" rx="62.58" ry="18"/>
<text text-anchor="middle" x="992.92" y="-15.2" font-family="Times,serif" font-size="11.00">Plan path home</text>
</g>
<!-- Path planning&#45;&gt;Plan path home -->
<g id="edge22" class="edge">
<title>Path planning&#45;&gt;Plan path home</title>
<path fill="none" stroke="black" d="M799.71,-80.88C839.27,-68.22 900.05,-48.75 942.86,-35.04"/>
<polygon fill="black" stroke="black" points="944.06,-38.33 952.52,-31.94 941.93,-31.66 944.06,-38.33"/>
</g>
<!-- Victim actually found? -->
<g id="node26" class="node">
<title>Victim actually found?</title>
<ellipse fill="gray" stroke="black" cx="909.92" cy="-171.25" rx="84.58" ry="18"/>
<text text-anchor="middle" x="909.92" y="-168.45" font-family="Times,serif" font-size="11.00">Victim actually found?</text>
</g>
<!-- Rescue victim&#45;&gt;Victim actually found? -->
<g id="edge25" class="edge">
<title>Rescue victim&#45;&gt;Victim actually found?</title>
<path fill="none" stroke="black" d="M985.19,-229.57C971.68,-219.28 954.37,-206.1 939.76,-194.98"/>
<polygon fill="black" stroke="black" points="941.6,-191.98 931.52,-188.7 937.36,-197.54 941.6,-191.98"/>
</g>
<!-- Land where victim found -->
<g id="node27" class="node">
<title>Land where victim found</title>
<ellipse fill="gray" stroke="black" cx="1106.92" cy="-171.25" rx="93.62" ry="18"/>
<text text-anchor="middle" x="1106.92" y="-168.45" font-family="Times,serif" font-size="11.00">Land where victim found</text>
</g>
<!-- Rescue victim&#45;&gt;Land where victim found -->
<g id="edge26" class="edge">
<title>Rescue victim&#45;&gt;Land where victim found</title>
<path fill="none" stroke="black" d="M1030.89,-229.57C1044.45,-219.35 1061.78,-206.29 1076.47,-195.21"/>
<polygon fill="black" stroke="black" points="1078.89,-197.77 1084.77,-188.96 1074.68,-192.18 1078.89,-197.77"/>
</g>
<!-- Rescued victim -->
<g id="node28" class="node">
<title>Rescued victim</title>
<ellipse fill="gray" stroke="black" cx="1279.92" cy="-171.25" rx="61.17" ry="18"/>
<text text-anchor="middle" x="1279.92" y="-168.45" font-family="Times,serif" font-size="11.00">Rescued victim</text>
</g>
<!-- Rescue victim&#45;&gt;Rescued victim -->
<g id="edge27" class="edge">
<title>Rescue victim&#45;&gt;Rescued victim</title>
<path fill="none" stroke="black" d="M1055.61,-233.8C1103.51,-220.66 1177.14,-200.45 1226.86,-186.81"/>
<polygon fill="black" stroke="black" points="1228.06,-190.11 1236.78,-184.09 1226.21,-183.36 1228.06,-190.11"/>
</g>
</g>
</svg>
