<?xml version="1.0" encoding="UTF-8" standalone="no"?>
<!DOCTYPE svg PUBLIC "-//W3C//DTD SVG 1.1//EN"
 "http://www.w3.org/Graphics/SVG/1.1/DTD/svg11.dtd">
<!-- Generated by graphviz version 2.43.0 (0)
 -->
<!-- Title: mission Pages: 1 -->
<svg width="876pt" height="413pt"
 viewBox="0.00 0.00 876.38 413.25" xmlns="http://www.w3.org/2000/svg" xmlns:xlink="http://www.w3.org/1999/xlink">
<g id="graph0" class="graph" transform="scale(1 1) rotate(0) translate(4 409.25)">
<title>mission</title>
<polygon fill="white" stroke="transparent" points="-4,4 -4,-409.25 872.38,-409.25 872.38,4 -4,4"/>
<!-- Mission -->
<g id="node1" class="node">
<title>Mission</title>
<polygon fill="gold" stroke="black" points="201.84,-405.25 116.63,-405.25 94.71,-369.25 179.92,-369.25 201.84,-405.25"/>
<text text-anchor="middle" x="148.28" y="-384.45" font-family="Times,serif" font-size="11.00">Mission</text>
</g>
<!-- Topics2BB -->
<g id="node2" class="node">
<title>Topics2BB</title>
<polygon fill="orange" stroke="black" points="135.78,-333.25 60.78,-333.25 60.78,-297.25 135.78,-297.25 135.78,-333.25"/>
<text text-anchor="middle" x="98.28" y="-312.45" font-family="Times,serif" font-size="11.00">Topics2BB</text>
</g>
<!-- Mission&#45;&gt;Topics2BB -->
<g id="edge1" class="edge">
<title>Mission&#45;&gt;Topics2BB</title>
<path fill="none" stroke="black" d="M135.92,-368.95C130.04,-360.73 122.91,-350.74 116.43,-341.68"/>
<polygon fill="black" stroke="black" points="119.15,-339.46 110.49,-333.36 113.46,-343.53 119.15,-339.46"/>
</g>
<!-- Priorities -->
<g id="node4" class="node">
<title>Priorities</title>
<polygon fill="cyan" stroke="black" points="250.9,-307.8 250.9,-322.71 224.17,-333.25 186.38,-333.25 159.65,-322.71 159.65,-307.8 186.38,-297.25 224.17,-297.25 250.9,-307.8"/>
<text text-anchor="middle" x="205.28" y="-312.45" font-family="Times,serif" font-size="11.00">Priorities</text>
</g>
<!-- Mission&#45;&gt;Priorities -->
<g id="edge3" class="edge">
<title>Mission&#45;&gt;Priorities</title>
<path fill="none" stroke="black" d="M162.37,-368.95C169.2,-360.56 177.53,-350.33 185.03,-341.12"/>
<polygon fill="black" stroke="black" points="187.75,-343.32 191.35,-333.36 182.32,-338.9 187.75,-343.32"/>
</g>
<!-- Battery2BB -->
<g id="node3" class="node">
<title>Battery2BB</title>
<ellipse fill="gray" stroke="black" cx="91.28" cy="-243.25" rx="49.12" ry="18"/>
<text text-anchor="middle" x="91.28" y="-240.45" font-family="Times,serif" font-size="11.00">Battery2BB</text>
</g>
<!-- Topics2BB&#45;&gt;Battery2BB -->
<g id="edge2" class="edge">
<title>Topics2BB&#45;&gt;Battery2BB</title>
<path fill="none" stroke="black" d="M96.55,-296.95C95.77,-289.24 94.85,-279.97 93.99,-271.37"/>
<polygon fill="black" stroke="black" points="97.46,-270.96 92.99,-261.36 90.5,-271.66 97.46,-270.96"/>
</g>
<!-- BatteryCheck -->
<g id="node5" class="node">
<title>BatteryCheck</title>
<polygon fill="orange" stroke="black" points="251.78,-261.25 158.78,-261.25 158.78,-225.25 251.78,-225.25 251.78,-261.25"/>
<text text-anchor="middle" x="205.28" y="-240.45" font-family="Times,serif" font-size="11.00">BatteryCheck</text>
</g>
<!-- Priorities&#45;&gt;BatteryCheck -->
<g id="edge4" class="edge">
<title>Priorities&#45;&gt;BatteryCheck</title>
<path fill="none" stroke="black" d="M205.28,-296.95C205.28,-289.24 205.28,-279.97 205.28,-271.37"/>
<polygon fill="black" stroke="black" points="208.78,-271.36 205.28,-261.36 201.78,-271.36 208.78,-271.36"/>
</g>
<!-- Search and Rescue -->
<g id="node8" class="node">
<title>Search and Rescue</title>
<polygon fill="cyan" stroke="black" points="431.2,-235.8 431.2,-250.71 383.79,-261.25 316.76,-261.25 269.36,-250.71 269.36,-235.8 316.76,-225.25 383.79,-225.25 431.2,-235.8"/>
<text text-anchor="middle" x="350.28" y="-240.45" font-family="Times,serif" font-size="11.00">Search and Rescue</text>
</g>
<!-- Priorities&#45;&gt;Search and Rescue -->
<g id="edge7" class="edge">
<title>Priorities&#45;&gt;Search and Rescue</title>
<path fill="none" stroke="black" d="M233.23,-300.76C253.94,-290.76 282.56,-276.95 306.31,-265.48"/>
<polygon fill="black" stroke="black" points="308,-268.55 315.49,-261.05 304.96,-262.25 308,-268.55"/>
</g>
<!-- Low battery? -->
<g id="node6" class="node">
<title>Low battery?</title>
<ellipse fill="gray" stroke="black" cx="91.28" cy="-171.25" rx="54.94" ry="18"/>
<text text-anchor="middle" x="91.28" y="-168.45" font-family="Times,serif" font-size="11.00">Low battery?</text>
</g>
<!-- BatteryCheck&#45;&gt;Low battery? -->
<g id="edge5" class="edge">
<title>BatteryCheck&#45;&gt;Low battery?</title>
<path fill="none" stroke="black" d="M177.39,-225.13C161.59,-215.43 141.72,-203.23 125.05,-192.99"/>
<polygon fill="black" stroke="black" points="126.51,-189.78 116.16,-187.53 122.85,-195.75 126.51,-189.78"/>
</g>
<!-- Return home -->
<g id="node7" class="node">
<title>Return home</title>
<ellipse fill="gray" stroke="black" cx="217.28" cy="-171.25" rx="53.54" ry="18"/>
<text text-anchor="middle" x="217.28" y="-168.45" font-family="Times,serif" font-size="11.00">Return home</text>
</g>
<!-- BatteryCheck&#45;&gt;Return home -->
<g id="edge6" class="edge">
<title>BatteryCheck&#45;&gt;Return home</title>
<path fill="none" stroke="black" d="M208.24,-224.95C209.56,-217.24 211.15,-207.97 212.63,-199.37"/>
<polygon fill="black" stroke="black" points="216.1,-199.81 214.34,-189.36 209.2,-198.62 216.1,-199.81"/>
</g>
<!-- Search -->
<g id="node9" class="node">
<title>Search</title>
<polygon fill="orange" stroke="black" points="367.28,-189.25 311.28,-189.25 311.28,-153.25 367.28,-153.25 367.28,-189.25"/>
<text text-anchor="middle" x="339.28" y="-168.45" font-family="Times,serif" font-size="11.00">Search</text>
</g>
<!-- Search and Rescue&#45;&gt;Search -->
<g id="edge8" class="edge">
<title>Search and Rescue&#45;&gt;Search</title>
<path fill="none" stroke="black" d="M347.56,-224.95C346.34,-217.24 344.89,-207.97 343.54,-199.37"/>
<polygon fill="black" stroke="black" points="346.97,-198.69 341.96,-189.36 340.06,-199.78 346.97,-198.69"/>
</g>
<!-- Rescue -->
<g id="node15" class="node">
<title>Rescue</title>
<polygon fill="orange" stroke="black" points="712.78,-189.25 655.78,-189.25 655.78,-153.25 712.78,-153.25 712.78,-189.25"/>
<text text-anchor="middle" x="684.28" y="-168.45" font-family="Times,serif" font-size="11.00">Rescue</text>
</g>
<!-- Search and Rescue&#45;&gt;Rescue -->
<g id="edge14" class="edge">
<title>Search and Rescue&#45;&gt;Rescue</title>
<path fill="none" stroke="black" d="M406.93,-230.38C474.88,-216.14 586.94,-192.65 645.66,-180.35"/>
<polygon fill="black" stroke="black" points="646.57,-183.73 655.63,-178.26 645.13,-176.88 646.57,-183.73"/>
</g>
<!-- Takeoff -->
<g id="node10" class="node">
<title>Takeoff</title>
<ellipse fill="gray" stroke="black" cx="34.28" cy="-94.63" rx="34.05" ry="18"/>
<text text-anchor="middle" x="34.28" y="-91.83" font-family="Times,serif" font-size="11.00">Takeoff</text>
</g>
<!-- Search&#45;&gt;Takeoff -->
<g id="edge9" class="edge">
<title>Search&#45;&gt;Takeoff</title>
<path fill="none" stroke="black" d="M311.22,-161.52C301.48,-158.66 290.45,-155.62 280.28,-153.25 191.02,-132.54 164.23,-146.15 77.28,-117.25 73.46,-115.99 69.56,-114.43 65.74,-112.74"/>
<polygon fill="black" stroke="black" points="67.04,-109.49 56.51,-108.35 64.04,-115.81 67.04,-109.49"/>
</g>
<!-- Inverter\n[victim found] -->
<g id="node11" class="node">
<title>Inverter\n[victim found]</title>
<ellipse fill="ghostwhite" stroke="black" cx="153.28" cy="-94.63" rx="67.35" ry="22.76"/>
<text text-anchor="middle" x="153.28" y="-97.83" font-family="Times,serif" font-size="11.00">Inverter</text>
<text text-anchor="middle" x="153.28" y="-85.83" font-family="Times,serif" font-size="11.00">[victim found]</text>
</g>
<!-- Search&#45;&gt;Inverter\n[victim found] -->
<g id="edge10" class="edge">
<title>Search&#45;&gt;Inverter\n[victim found]</title>
<path fill="none" stroke="black" d="M311.03,-158.92C282.88,-147.63 239.02,-130.03 204.69,-116.26"/>
<polygon fill="black" stroke="black" points="205.87,-112.96 195.28,-112.48 203.26,-119.45 205.87,-112.96"/>
</g>
<!-- Update plan with new map -->
<g id="node13" class="node">
<title>Update plan with new map</title>
<ellipse fill="gray" stroke="black" cx="339.28" cy="-94.63" rx="101.05" ry="18"/>
<text text-anchor="middle" x="339.28" y="-91.83" font-family="Times,serif" font-size="11.00">Update plan with new map</text>
</g>
<!-- Search&#45;&gt;Update plan with new map -->
<g id="edge12" class="edge">
<title>Search&#45;&gt;Update plan with new map</title>
<path fill="none" stroke="black" d="M339.28,-152.95C339.28,-144.09 339.28,-133.11 339.28,-123.13"/>
<polygon fill="black" stroke="black" points="342.78,-122.84 339.28,-112.84 335.78,-122.84 342.78,-122.84"/>
</g>
<!-- Move to next cell -->
<g id="node14" class="node">
<title>Move to next cell</title>
<ellipse fill="gray" stroke="black" cx="527.28" cy="-94.63" rx="68.61" ry="18"/>
<text text-anchor="middle" x="527.28" y="-91.83" font-family="Times,serif" font-size="11.00">Move to next cell</text>
</g>
<!-- Search&#45;&gt;Move to next cell -->
<g id="edge13" class="edge">
<title>Search&#45;&gt;Move to next cell</title>
<path fill="none" stroke="black" d="M367.42,-159.08C397.57,-147.11 445.88,-127.94 481.51,-113.79"/>
<polygon fill="black" stroke="black" points="483.2,-116.89 491.2,-109.95 480.61,-110.38 483.2,-116.89"/>
</g>
<!-- victim found -->
<g id="node12" class="node">
<title>victim found</title>
<ellipse fill="gray" stroke="black" cx="153.28" cy="-18" rx="51.93" ry="18"/>
<text text-anchor="middle" x="153.28" y="-15.2" font-family="Times,serif" font-size="11.00">victim found</text>
</g>
<!-- Inverter\n[victim found]&#45;&gt;victim found -->
<g id="edge11" class="edge">
<title>Inverter\n[victim found]&#45;&gt;victim found</title>
<path fill="none" stroke="black" d="M153.28,-71.64C153.28,-63.66 153.28,-54.55 153.28,-46.17"/>
<polygon fill="black" stroke="black" points="156.78,-46.1 153.28,-36.1 149.78,-46.1 156.78,-46.1"/>
</g>
<!-- Stop above victim -->
<g id="node16" class="node">
<title>Stop above victim</title>
<ellipse fill="gray" stroke="black" cx="684.28" cy="-94.63" rx="70.21" ry="18"/>
<text text-anchor="middle" x="684.28" y="-91.83" font-family="Times,serif" font-size="11.00">Stop above victim</text>
</g>
<!-- Rescue&#45;&gt;Stop above victim -->
<g id="edge15" class="edge">
<title>Rescue&#45;&gt;Stop above victim</title>
<path fill="none" stroke="black" d="M684.28,-152.95C684.28,-144.09 684.28,-133.11 684.28,-123.13"/>
<polygon fill="black" stroke="black" points="687.78,-122.84 684.28,-112.84 680.78,-122.84 687.78,-122.84"/>
</g>
<!-- Land drone -->
<g id="node17" class="node">
<title>Land drone</title>
<ellipse fill="gray" stroke="black" cx="820.28" cy="-94.63" rx="48.21" ry="18"/>
<text text-anchor="middle" x="820.28" y="-91.83" font-family="Times,serif" font-size="11.00">Land drone</text>
</g>
<!-- Rescue&#45;&gt;Land drone -->
<g id="edge16" class="edge">
<title>Rescue&#45;&gt;Land drone</title>
<path fill="none" stroke="black" d="M712.79,-154.61C733.87,-143.04 762.71,-127.22 785.21,-114.87"/>
<polygon fill="black" stroke="black" points="787.02,-117.87 794.11,-109.99 783.66,-111.73 787.02,-117.87"/>
</g>
</g>
</svg>
