<?xml version="1.0" encoding="UTF-8" standalone="no"?>
<!DOCTYPE svg PUBLIC "-//W3C//DTD SVG 1.1//EN"
 "http://www.w3.org/Graphics/SVG/1.1/DTD/svg11.dtd">
<!-- Generated by graphviz version 2.43.0 (0)
 -->
<!-- Title: mission Pages: 1 -->
<svg width="1123pt" height="495pt"
 viewBox="0.00 0.00 1123.48 494.51" xmlns="http://www.w3.org/2000/svg" xmlns:xlink="http://www.w3.org/1999/xlink">
<g id="graph0" class="graph" transform="scale(1 1) rotate(0) translate(4 490.51)">
<title>mission</title>
<polygon fill="white" stroke="transparent" points="-4,4 -4,-490.51 1119.48,-490.51 1119.48,4 -4,4"/>
<!-- Mission -->
<g id="node1" class="node">
<title>Mission</title>
<polygon fill="gold" stroke="black" points="309.71,-486.51 224.5,-486.51 202.58,-450.51 287.79,-450.51 309.71,-486.51"/>
<text text-anchor="middle" x="256.15" y="-465.71" font-family="Times,serif" font-size="11.00">Mission</text>
</g>
<!-- Topics2BB -->
<g id="node2" class="node">
<title>Topics2BB</title>
<polygon fill="orange" stroke="black" points="236.65,-414.51 161.65,-414.51 161.65,-378.51 236.65,-378.51 236.65,-414.51"/>
<text text-anchor="middle" x="199.15" y="-393.71" font-family="Times,serif" font-size="11.00">Topics2BB</text>
</g>
<!-- Mission&#45;&gt;Topics2BB -->
<g id="edge1" class="edge">
<title>Mission&#45;&gt;Topics2BB</title>
<path fill="none" stroke="black" d="M242.06,-450.21C235.22,-441.81 226.89,-431.58 219.39,-422.37"/>
<polygon fill="black" stroke="black" points="222.1,-420.16 213.07,-414.61 216.68,-424.58 222.1,-420.16"/>
</g>
<!-- Priorities -->
<g id="node5" class="node">
<title>Priorities</title>
<polygon fill="cyan" stroke="black" points="359.77,-389.05 359.77,-403.97 333.05,-414.51 295.25,-414.51 268.52,-403.97 268.52,-389.05 295.25,-378.51 333.05,-378.51 359.77,-389.05"/>
<text text-anchor="middle" x="314.15" y="-393.71" font-family="Times,serif" font-size="11.00">Priorities</text>
</g>
<!-- Mission&#45;&gt;Priorities -->
<g id="edge4" class="edge">
<title>Mission&#45;&gt;Priorities</title>
<path fill="none" stroke="black" d="M270.48,-450.21C277.44,-441.81 285.92,-431.58 293.55,-422.37"/>
<polygon fill="black" stroke="black" points="296.29,-424.55 299.97,-414.61 290.9,-420.08 296.29,-424.55"/>
</g>
<!-- VictimFound2BB -->
<g id="node3" class="node">
<title>VictimFound2BB</title>
<ellipse fill="gray" stroke="black" cx="66.15" cy="-324.51" rx="66.29" ry="18"/>
<text text-anchor="middle" x="66.15" y="-321.71" font-family="Times,serif" font-size="11.00">VictimFound2BB</text>
</g>
<!-- Topics2BB&#45;&gt;VictimFound2BB -->
<g id="edge2" class="edge">
<title>Topics2BB&#45;&gt;VictimFound2BB</title>
<path fill="none" stroke="black" d="M166.61,-378.39C147.76,-368.46 123.92,-355.92 104.2,-345.54"/>
<polygon fill="black" stroke="black" points="105.66,-342.35 95.18,-340.79 102.4,-348.54 105.66,-342.35"/>
</g>
<!-- Battery2BB -->
<g id="node4" class="node">
<title>Battery2BB</title>
<ellipse fill="gray" stroke="black" cx="199.15" cy="-324.51" rx="49.12" ry="18"/>
<text text-anchor="middle" x="199.15" y="-321.71" font-family="Times,serif" font-size="11.00">Battery2BB</text>
</g>
<!-- Topics2BB&#45;&gt;Battery2BB -->
<g id="edge3" class="edge">
<title>Topics2BB&#45;&gt;Battery2BB</title>
<path fill="none" stroke="black" d="M199.15,-378.21C199.15,-370.49 199.15,-361.22 199.15,-352.62"/>
<polygon fill="black" stroke="black" points="202.65,-352.61 199.15,-342.61 195.65,-352.61 202.65,-352.61"/>
</g>
<!-- Battery check -->
<g id="node6" class="node">
<title>Battery check</title>
<polygon fill="orange" stroke="black" points="361.65,-342.51 266.65,-342.51 266.65,-306.51 361.65,-306.51 361.65,-342.51"/>
<text text-anchor="middle" x="314.15" y="-321.71" font-family="Times,serif" font-size="11.00">Battery check</text>
</g>
<!-- Priorities&#45;&gt;Battery check -->
<g id="edge5" class="edge">
<title>Priorities&#45;&gt;Battery check</title>
<path fill="none" stroke="black" d="M314.15,-378.21C314.15,-370.49 314.15,-361.22 314.15,-352.62"/>
<polygon fill="black" stroke="black" points="317.65,-352.61 314.15,-342.61 310.65,-352.61 317.65,-352.61"/>
</g>
<!-- Search &amp; rescue victim -->
<g id="node12" class="node">
<title>Search &amp; rescue victim</title>
<polygon fill="orange" stroke="black" points="569.65,-342.51 420.65,-342.51 420.65,-306.51 569.65,-306.51 569.65,-342.51"/>
<text text-anchor="middle" x="495.15" y="-321.71" font-family="Times,serif" font-size="11.00">Search &amp; rescue victim</text>
</g>
<!-- Priorities&#45;&gt;Search &amp; rescue victim -->
<g id="edge11" class="edge">
<title>Priorities&#45;&gt;Search &amp; rescue victim</title>
<path fill="none" stroke="black" d="M345.67,-383.32C372.11,-373.09 410.44,-358.27 441.66,-346.2"/>
<polygon fill="black" stroke="black" points="443.04,-349.42 451.1,-342.54 440.51,-342.89 443.04,-349.42"/>
</g>
<!-- Battery low? -->
<g id="node7" class="node">
<title>Battery low?</title>
<ellipse fill="gray" stroke="black" cx="198.15" cy="-247.88" rx="53.54" ry="18"/>
<text text-anchor="middle" x="198.15" y="-245.08" font-family="Times,serif" font-size="11.00">Battery low?</text>
</g>
<!-- Battery check&#45;&gt;Battery low? -->
<g id="edge6" class="edge">
<title>Battery check&#45;&gt;Battery low?</title>
<path fill="none" stroke="black" d="M287.53,-306.39C270.52,-295.44 248.35,-281.18 230.34,-269.59"/>
<polygon fill="black" stroke="black" points="232.18,-266.62 221.88,-264.15 228.4,-272.5 232.18,-266.62"/>
</g>
<!-- Return home -->
<g id="node8" class="node">
<title>Return home</title>
<polygon fill="orange" stroke="black" points="358.65,-265.88 269.65,-265.88 269.65,-229.88 358.65,-229.88 358.65,-265.88"/>
<text text-anchor="middle" x="314.15" y="-245.08" font-family="Times,serif" font-size="11.00">Return home</text>
</g>
<!-- Battery check&#45;&gt;Return home -->
<g id="edge7" class="edge">
<title>Battery check&#45;&gt;Return home</title>
<path fill="none" stroke="black" d="M314.15,-306.2C314.15,-297.35 314.15,-286.36 314.15,-276.38"/>
<polygon fill="black" stroke="black" points="317.65,-276.1 314.15,-266.1 310.65,-276.1 317.65,-276.1"/>
</g>
<!-- Fly home -->
<g id="node9" class="node">
<title>Fly home</title>
<ellipse fill="gray" stroke="black" cx="208.15" cy="-171.25" rx="40.78" ry="18"/>
<text text-anchor="middle" x="208.15" y="-168.45" font-family="Times,serif" font-size="11.00">Fly home</text>
</g>
<!-- Return home&#45;&gt;Fly home -->
<g id="edge8" class="edge">
<title>Return home&#45;&gt;Fly home</title>
<path fill="none" stroke="black" d="M289.83,-229.76C274.21,-218.77 253.85,-204.43 237.36,-192.82"/>
<polygon fill="black" stroke="black" points="239.32,-189.92 229.13,-187.03 235.29,-195.65 239.32,-189.92"/>
</g>
<!-- Land home -->
<g id="node10" class="node">
<title>Land home</title>
<ellipse fill="gray" stroke="black" cx="314.15" cy="-171.25" rx="47.51" ry="18"/>
<text text-anchor="middle" x="314.15" y="-168.45" font-family="Times,serif" font-size="11.00">Land home</text>
</g>
<!-- Return home&#45;&gt;Land home -->
<g id="edge9" class="edge">
<title>Return home&#45;&gt;Land home</title>
<path fill="none" stroke="black" d="M314.15,-229.57C314.15,-220.72 314.15,-209.73 314.15,-199.75"/>
<polygon fill="black" stroke="black" points="317.65,-199.47 314.15,-189.47 310.65,-199.47 317.65,-199.47"/>
</g>
<!-- Terminate -->
<g id="node11" class="node">
<title>Terminate</title>
<ellipse fill="gray" stroke="black" cx="424.15" cy="-171.25" rx="44.5" ry="18"/>
<text text-anchor="middle" x="424.15" y="-168.45" font-family="Times,serif" font-size="11.00">Terminate</text>
</g>
<!-- Return home&#45;&gt;Terminate -->
<g id="edge10" class="edge">
<title>Return home&#45;&gt;Terminate</title>
<path fill="none" stroke="black" d="M339.38,-229.76C355.59,-218.77 376.72,-204.43 393.84,-192.82"/>
<polygon fill="black" stroke="black" points="396.06,-195.54 402.37,-187.03 392.13,-189.75 396.06,-195.54"/>
</g>
<!-- Takeoff -->
<g id="node13" class="node">
<title>Takeoff</title>
<ellipse fill="gray" stroke="black" cx="411.15" cy="-247.88" rx="34.05" ry="18"/>
<text text-anchor="middle" x="411.15" y="-245.08" font-family="Times,serif" font-size="11.00">Takeoff</text>
</g>
<!-- Search &amp; rescue victim&#45;&gt;Takeoff -->
<g id="edge12" class="edge">
<title>Search &amp; rescue victim&#45;&gt;Takeoff</title>
<path fill="none" stroke="black" d="M475.66,-306.2C463.7,-295.58 448.28,-281.88 435.52,-270.54"/>
<polygon fill="black" stroke="black" points="437.77,-267.85 427.97,-263.83 433.12,-273.09 437.77,-267.85"/>
</g>
<!-- Condition\n[Search victim] -->
<g id="node14" class="node">
<title>Condition\n[Search victim]</title>
<ellipse fill="ghostwhite" stroke="black" cx="536.15" cy="-247.88" rx="72.66" ry="22.76"/>
<text text-anchor="middle" x="536.15" y="-251.08" font-family="Times,serif" font-size="11.00">Condition</text>
<text text-anchor="middle" x="536.15" y="-239.08" font-family="Times,serif" font-size="11.00">[Search victim]</text>
</g>
<!-- Search &amp; rescue victim&#45;&gt;Condition\n[Search victim] -->
<g id="edge13" class="edge">
<title>Search &amp; rescue victim&#45;&gt;Condition\n[Search victim]</title>
<path fill="none" stroke="black" d="M504.66,-306.2C509.06,-298.19 514.42,-288.44 519.46,-279.26"/>
<polygon fill="black" stroke="black" points="522.6,-280.82 524.34,-270.37 516.46,-277.45 522.6,-280.82"/>
</g>
<!-- Rescue victim -->
<g id="node19" class="node">
<title>Rescue victim</title>
<polygon fill="orange" stroke="black" points="829.65,-265.88 734.65,-265.88 734.65,-229.88 829.65,-229.88 829.65,-265.88"/>
<text text-anchor="middle" x="782.15" y="-245.08" font-family="Times,serif" font-size="11.00">Rescue victim</text>
</g>
<!-- Search &amp; rescue victim&#45;&gt;Rescue victim -->
<g id="edge18" class="edge">
<title>Search &amp; rescue victim&#45;&gt;Rescue victim</title>
<path fill="none" stroke="black" d="M560.63,-306.48C610.06,-293.63 677.22,-276.17 724.6,-263.85"/>
<polygon fill="black" stroke="black" points="725.6,-267.2 734.39,-261.3 723.83,-260.43 725.6,-267.2"/>
</g>
<!-- Search victim -->
<g id="node15" class="node">
<title>Search victim</title>
<polygon fill="orange" stroke="black" points="581.15,-189.25 487.15,-189.25 487.15,-153.25 581.15,-153.25 581.15,-189.25"/>
<text text-anchor="middle" x="534.15" y="-168.45" font-family="Times,serif" font-size="11.00">Search victim</text>
</g>
<!-- Condition\n[Search victim]&#45;&gt;Search victim -->
<g id="edge14" class="edge">
<title>Condition\n[Search victim]&#45;&gt;Search victim</title>
<path fill="none" stroke="black" d="M535.56,-224.9C535.34,-216.91 535.1,-207.8 534.88,-199.43"/>
<polygon fill="black" stroke="black" points="538.37,-199.26 534.61,-189.35 531.37,-199.44 538.37,-199.26"/>
</g>
<!-- Inverter\n[Victim found?] -->
<g id="node16" class="node">
<title>Inverter\n[Victim found?]</title>
<ellipse fill="ghostwhite" stroke="black" cx="447.15" cy="-94.63" rx="72.25" ry="22.76"/>
<text text-anchor="middle" x="447.15" y="-97.83" font-family="Times,serif" font-size="11.00">Inverter</text>
<text text-anchor="middle" x="447.15" y="-85.83" font-family="Times,serif" font-size="11.00">[Victim found?]</text>
</g>
<!-- Search victim&#45;&gt;Inverter\n[Victim found?] -->
<g id="edge15" class="edge">
<title>Search victim&#45;&gt;Inverter\n[Victim found?]</title>
<path fill="none" stroke="black" d="M513.97,-152.95C503.53,-143.99 490.54,-132.85 478.8,-122.78"/>
<polygon fill="black" stroke="black" points="480.79,-119.87 470.92,-116.02 476.23,-125.19 480.79,-119.87"/>
</g>
<!-- Move to next position -->
<g id="node18" class="node">
<title>Move to next position</title>
<ellipse fill="gray" stroke="black" cx="621.15" cy="-94.63" rx="83.67" ry="18"/>
<text text-anchor="middle" x="621.15" y="-91.83" font-family="Times,serif" font-size="11.00">Move to next position</text>
</g>
<!-- Search victim&#45;&gt;Move to next position -->
<g id="edge17" class="edge">
<title>Search victim&#45;&gt;Move to next position</title>
<path fill="none" stroke="black" d="M554.33,-152.95C566.13,-142.82 581.19,-129.9 594.02,-118.89"/>
<polygon fill="black" stroke="black" points="596.37,-121.5 601.68,-112.33 591.81,-116.18 596.37,-121.5"/>
</g>
<!-- Victim found? -->
<g id="node17" class="node">
<title>Victim found?</title>
<ellipse fill="gray" stroke="black" cx="447.15" cy="-18" rx="55.85" ry="18"/>
<text text-anchor="middle" x="447.15" y="-15.2" font-family="Times,serif" font-size="11.00">Victim found?</text>
</g>
<!-- Inverter\n[Victim found?]&#45;&gt;Victim found? -->
<g id="edge16" class="edge">
<title>Inverter\n[Victim found?]&#45;&gt;Victim found?</title>
<path fill="none" stroke="black" d="M447.15,-71.64C447.15,-63.66 447.15,-54.55 447.15,-46.17"/>
<polygon fill="black" stroke="black" points="450.65,-46.1 447.15,-36.1 443.65,-46.1 450.65,-46.1"/>
</g>
<!-- Victim actually found? -->
<g id="node20" class="node">
<title>Victim actually found?</title>
<ellipse fill="gray" stroke="black" cx="684.15" cy="-171.25" rx="84.58" ry="18"/>
<text text-anchor="middle" x="684.15" y="-168.45" font-family="Times,serif" font-size="11.00">Victim actually found?</text>
</g>
<!-- Rescue victim&#45;&gt;Victim actually found? -->
<g id="edge19" class="edge">
<title>Rescue victim&#45;&gt;Victim actually found?</title>
<path fill="none" stroke="black" d="M759.42,-229.57C745.9,-219.28 728.59,-206.1 713.99,-194.98"/>
<polygon fill="black" stroke="black" points="715.82,-191.98 705.74,-188.7 711.58,-197.54 715.82,-191.98"/>
</g>
<!-- Land where victim found -->
<g id="node21" class="node">
<title>Land where victim found</title>
<ellipse fill="gray" stroke="black" cx="881.15" cy="-171.25" rx="93.62" ry="18"/>
<text text-anchor="middle" x="881.15" y="-168.45" font-family="Times,serif" font-size="11.00">Land where victim found</text>
</g>
<!-- Rescue victim&#45;&gt;Land where victim found -->
<g id="edge20" class="edge">
<title>Rescue victim&#45;&gt;Land where victim found</title>
<path fill="none" stroke="black" d="M805.11,-229.57C818.67,-219.35 836,-206.29 850.69,-195.21"/>
<polygon fill="black" stroke="black" points="853.11,-197.77 858.99,-188.96 848.9,-192.18 853.11,-197.77"/>
</g>
<!-- Rescued victim -->
<g id="node22" class="node">
<title>Rescued victim</title>
<ellipse fill="gray" stroke="black" cx="1054.15" cy="-171.25" rx="61.17" ry="18"/>
<text text-anchor="middle" x="1054.15" y="-168.45" font-family="Times,serif" font-size="11.00">Rescued victim</text>
</g>
<!-- Rescue victim&#45;&gt;Rescued victim -->
<g id="edge21" class="edge">
<title>Rescue victim&#45;&gt;Rescued victim</title>
<path fill="none" stroke="black" d="M829.84,-233.8C877.73,-220.66 951.37,-200.45 1001.08,-186.81"/>
<polygon fill="black" stroke="black" points="1002.28,-190.11 1011,-184.09 1000.43,-183.36 1002.28,-190.11"/>
</g>
</g>
</svg>
