<?xml version="1.0" encoding="UTF-8" standalone="no"?>
<!DOCTYPE svg PUBLIC "-//W3C//DTD SVG 1.1//EN"
 "http://www.w3.org/Graphics/SVG/1.1/DTD/svg11.dtd">
<!-- Generated by graphviz version 2.43.0 (0)
 -->
<!-- Title: mission Pages: 1 -->
<svg width="1349pt" height="495pt"
 viewBox="0.00 0.00 1349.48 494.51" xmlns="http://www.w3.org/2000/svg" xmlns:xlink="http://www.w3.org/1999/xlink">
<g id="graph0" class="graph" transform="scale(1 1) rotate(0) translate(4 490.51)">
<title>mission</title>
<polygon fill="white" stroke="transparent" points="-4,4 -4,-490.51 1345.48,-490.51 1345.48,4 -4,4"/>
<!-- Mission -->
<g id="node1" class="node">
<title>Mission</title>
<polygon fill="gold" stroke="black" points="475.71,-486.51 390.5,-486.51 368.58,-450.51 453.79,-450.51 475.71,-486.51"/>
<text text-anchor="middle" x="422.15" y="-465.71" font-family="Times,serif" font-size="11.00">Mission</text>
</g>
<!-- Topics2BB -->
<g id="node2" class="node">
<title>Topics2BB</title>
<polygon fill="orange" stroke="black" points="342.65,-414.51 267.65,-414.51 267.65,-378.51 342.65,-378.51 342.65,-414.51"/>
<text text-anchor="middle" x="305.15" y="-393.71" font-family="Times,serif" font-size="11.00">Topics2BB</text>
</g>
<!-- Mission&#45;&gt;Topics2BB -->
<g id="edge1" class="edge">
<title>Mission&#45;&gt;Topics2BB</title>
<path fill="none" stroke="black" d="M393.53,-450.39C378.23,-441.23 359.2,-429.85 342.73,-419.99"/>
<polygon fill="black" stroke="black" points="344.26,-416.83 333.88,-414.7 340.66,-422.84 344.26,-416.83"/>
</g>
<!-- Priorities -->
<g id="node7" class="node">
<title>Priorities</title>
<polygon fill="cyan" stroke="black" points="584.77,-389.05 584.77,-403.97 558.05,-414.51 520.25,-414.51 493.52,-403.97 493.52,-389.05 520.25,-378.51 558.05,-378.51 584.77,-389.05"/>
<text text-anchor="middle" x="539.15" y="-393.71" font-family="Times,serif" font-size="11.00">Priorities</text>
</g>
<!-- Mission&#45;&gt;Priorities -->
<g id="edge6" class="edge">
<title>Mission&#45;&gt;Priorities</title>
<path fill="none" stroke="black" d="M450.77,-450.39C467.36,-440.46 488.33,-427.91 505.69,-417.53"/>
<polygon fill="black" stroke="black" points="507.6,-420.46 514.39,-412.32 504.01,-414.45 507.6,-420.46"/>
</g>
<!-- VictimFound2BB -->
<g id="node3" class="node">
<title>VictimFound2BB</title>
<ellipse fill="gray" stroke="black" cx="66.15" cy="-324.51" rx="66.29" ry="18"/>
<text text-anchor="middle" x="66.15" y="-321.71" font-family="Times,serif" font-size="11.00">VictimFound2BB</text>
</g>
<!-- Topics2BB&#45;&gt;VictimFound2BB -->
<g id="edge2" class="edge">
<title>Topics2BB&#45;&gt;VictimFound2BB</title>
<path fill="none" stroke="black" d="M267.54,-384.5C227.7,-372.83 164.46,-354.3 119.48,-341.13"/>
<polygon fill="black" stroke="black" points="120.19,-337.69 109.6,-338.24 118.22,-344.41 120.19,-337.69"/>
</g>
<!-- Battery2BB -->
<g id="node4" class="node">
<title>Battery2BB</title>
<ellipse fill="gray" stroke="black" cx="199.15" cy="-324.51" rx="49.12" ry="18"/>
<text text-anchor="middle" x="199.15" y="-321.71" font-family="Times,serif" font-size="11.00">Battery2BB</text>
</g>
<!-- Topics2BB&#45;&gt;Battery2BB -->
<g id="edge3" class="edge">
<title>Topics2BB&#45;&gt;Battery2BB</title>
<path fill="none" stroke="black" d="M279.22,-378.39C264.56,-368.71 246.14,-356.54 230.65,-346.32"/>
<polygon fill="black" stroke="black" points="232.2,-343.15 221.93,-340.56 228.35,-348.99 232.2,-343.15"/>
</g>
<!-- Map2BB -->
<g id="node5" class="node">
<title>Map2BB</title>
<ellipse fill="gray" stroke="black" cx="305.15" cy="-324.51" rx="39.17" ry="18"/>
<text text-anchor="middle" x="305.15" y="-321.71" font-family="Times,serif" font-size="11.00">Map2BB</text>
</g>
<!-- Topics2BB&#45;&gt;Map2BB -->
<g id="edge4" class="edge">
<title>Topics2BB&#45;&gt;Map2BB</title>
<path fill="none" stroke="black" d="M305.15,-378.21C305.15,-370.49 305.15,-361.22 305.15,-352.62"/>
<polygon fill="black" stroke="black" points="308.65,-352.61 305.15,-342.61 301.65,-352.61 308.65,-352.61"/>
</g>
<!-- WorldPos2BB -->
<g id="node6" class="node">
<title>WorldPos2BB</title>
<ellipse fill="gray" stroke="black" cx="418.15" cy="-324.51" rx="55.85" ry="18"/>
<text text-anchor="middle" x="418.15" y="-321.71" font-family="Times,serif" font-size="11.00">WorldPos2BB</text>
</g>
<!-- Topics2BB&#45;&gt;WorldPos2BB -->
<g id="edge5" class="edge">
<title>Topics2BB&#45;&gt;WorldPos2BB</title>
<path fill="none" stroke="black" d="M332.79,-378.39C348.45,-368.69 368.15,-356.48 384.67,-346.25"/>
<polygon fill="black" stroke="black" points="386.82,-349.03 393.48,-340.79 383.14,-343.08 386.82,-349.03"/>
</g>
<!-- Battery check -->
<g id="node8" class="node">
<title>Battery check</title>
<polygon fill="orange" stroke="black" points="586.65,-342.51 491.65,-342.51 491.65,-306.51 586.65,-306.51 586.65,-342.51"/>
<text text-anchor="middle" x="539.15" y="-321.71" font-family="Times,serif" font-size="11.00">Battery check</text>
</g>
<!-- Priorities&#45;&gt;Battery check -->
<g id="edge7" class="edge">
<title>Priorities&#45;&gt;Battery check</title>
<path fill="none" stroke="black" d="M539.15,-378.21C539.15,-370.49 539.15,-361.22 539.15,-352.62"/>
<polygon fill="black" stroke="black" points="542.65,-352.61 539.15,-342.61 535.65,-352.61 542.65,-352.61"/>
</g>
<!-- Search &amp; rescue victim -->
<g id="node15" class="node">
<title>Search &amp; rescue victim</title>
<polygon fill="orange" stroke="black" points="794.65,-342.51 645.65,-342.51 645.65,-306.51 794.65,-306.51 794.65,-342.51"/>
<text text-anchor="middle" x="720.15" y="-321.71" font-family="Times,serif" font-size="11.00">Search &amp; rescue victim</text>
</g>
<!-- Priorities&#45;&gt;Search &amp; rescue victim -->
<g id="edge14" class="edge">
<title>Priorities&#45;&gt;Search &amp; rescue victim</title>
<path fill="none" stroke="black" d="M570.67,-383.32C597.11,-373.09 635.44,-358.27 666.66,-346.2"/>
<polygon fill="black" stroke="black" points="668.04,-349.42 676.1,-342.54 665.51,-342.89 668.04,-349.42"/>
</g>
<!-- Battery low? -->
<g id="node9" class="node">
<title>Battery low?</title>
<ellipse fill="gray" stroke="black" cx="423.15" cy="-247.88" rx="53.54" ry="18"/>
<text text-anchor="middle" x="423.15" y="-245.08" font-family="Times,serif" font-size="11.00">Battery low?</text>
</g>
<!-- Battery check&#45;&gt;Battery low? -->
<g id="edge8" class="edge">
<title>Battery check&#45;&gt;Battery low?</title>
<path fill="none" stroke="black" d="M512.53,-306.39C495.52,-295.44 473.35,-281.18 455.34,-269.59"/>
<polygon fill="black" stroke="black" points="457.18,-266.62 446.88,-264.15 453.4,-272.5 457.18,-266.62"/>
</g>
<!-- Return home -->
<g id="node10" class="node">
<title>Return home</title>
<polygon fill="orange" stroke="black" points="583.65,-265.88 494.65,-265.88 494.65,-229.88 583.65,-229.88 583.65,-265.88"/>
<text text-anchor="middle" x="539.15" y="-245.08" font-family="Times,serif" font-size="11.00">Return home</text>
</g>
<!-- Battery check&#45;&gt;Return home -->
<g id="edge9" class="edge">
<title>Battery check&#45;&gt;Return home</title>
<path fill="none" stroke="black" d="M539.15,-306.2C539.15,-297.35 539.15,-286.36 539.15,-276.38"/>
<polygon fill="black" stroke="black" points="542.65,-276.1 539.15,-266.1 535.65,-276.1 542.65,-276.1"/>
</g>
<!-- Plan path home -->
<g id="node11" class="node">
<title>Plan path home</title>
<ellipse fill="gray" stroke="black" cx="313.15" cy="-171.25" rx="62.58" ry="18"/>
<text text-anchor="middle" x="313.15" y="-168.45" font-family="Times,serif" font-size="11.00">Plan path home</text>
</g>
<!-- Return home&#45;&gt;Plan path home -->
<g id="edge10" class="edge">
<title>Return home&#45;&gt;Plan path home</title>
<path fill="none" stroke="black" d="M498.49,-229.86C494.34,-228.25 490.17,-226.69 486.15,-225.25 446.42,-211.1 400.79,-197.21 366.36,-187.21"/>
<polygon fill="black" stroke="black" points="367.09,-183.78 356.51,-184.36 365.15,-190.5 367.09,-183.78"/>
</g>
<!-- Fly home -->
<g id="node12" class="node">
<title>Fly home</title>
<ellipse fill="gray" stroke="black" cx="434.15" cy="-171.25" rx="40.78" ry="18"/>
<text text-anchor="middle" x="434.15" y="-168.45" font-family="Times,serif" font-size="11.00">Fly home</text>
</g>
<!-- Return home&#45;&gt;Fly home -->
<g id="edge11" class="edge">
<title>Return home&#45;&gt;Fly home</title>
<path fill="none" stroke="black" d="M515.06,-229.76C499.73,-218.87 479.78,-204.69 463.53,-193.14"/>
<polygon fill="black" stroke="black" points="465.11,-189.97 454.93,-187.03 461.06,-195.67 465.11,-189.97"/>
</g>
<!-- Land home -->
<g id="node13" class="node">
<title>Land home</title>
<ellipse fill="gray" stroke="black" cx="540.15" cy="-171.25" rx="47.51" ry="18"/>
<text text-anchor="middle" x="540.15" y="-168.45" font-family="Times,serif" font-size="11.00">Land home</text>
</g>
<!-- Return home&#45;&gt;Land home -->
<g id="edge12" class="edge">
<title>Return home&#45;&gt;Land home</title>
<path fill="none" stroke="black" d="M539.38,-229.57C539.5,-220.72 539.64,-209.73 539.78,-199.75"/>
<polygon fill="black" stroke="black" points="543.28,-199.52 539.92,-189.47 536.28,-199.42 543.28,-199.52"/>
</g>
<!-- Terminate -->
<g id="node14" class="node">
<title>Terminate</title>
<ellipse fill="gray" stroke="black" cx="650.15" cy="-171.25" rx="44.5" ry="18"/>
<text text-anchor="middle" x="650.15" y="-168.45" font-family="Times,serif" font-size="11.00">Terminate</text>
</g>
<!-- Return home&#45;&gt;Terminate -->
<g id="edge13" class="edge">
<title>Return home&#45;&gt;Terminate</title>
<path fill="none" stroke="black" d="M564.61,-229.76C580.96,-218.77 602.29,-204.43 619.56,-192.82"/>
<polygon fill="black" stroke="black" points="621.83,-195.51 628.17,-187.03 617.92,-189.7 621.83,-195.51"/>
</g>
<!-- Takeoff -->
<g id="node16" class="node">
<title>Takeoff</title>
<ellipse fill="gray" stroke="black" cx="636.15" cy="-247.88" rx="34.05" ry="18"/>
<text text-anchor="middle" x="636.15" y="-245.08" font-family="Times,serif" font-size="11.00">Takeoff</text>
</g>
<!-- Search &amp; rescue victim&#45;&gt;Takeoff -->
<g id="edge15" class="edge">
<title>Search &amp; rescue victim&#45;&gt;Takeoff</title>
<path fill="none" stroke="black" d="M700.66,-306.2C688.7,-295.58 673.28,-281.88 660.52,-270.54"/>
<polygon fill="black" stroke="black" points="662.77,-267.85 652.97,-263.83 658.12,-273.09 662.77,-267.85"/>
</g>
<!-- Condition\n[Search victim] -->
<g id="node17" class="node">
<title>Condition\n[Search victim]</title>
<ellipse fill="ghostwhite" stroke="black" cx="761.15" cy="-247.88" rx="72.66" ry="22.76"/>
<text text-anchor="middle" x="761.15" y="-251.08" font-family="Times,serif" font-size="11.00">Condition</text>
<text text-anchor="middle" x="761.15" y="-239.08" font-family="Times,serif" font-size="11.00">[Search victim]</text>
</g>
<!-- Search &amp; rescue victim&#45;&gt;Condition\n[Search victim] -->
<g id="edge16" class="edge">
<title>Search &amp; rescue victim&#45;&gt;Condition\n[Search victim]</title>
<path fill="none" stroke="black" d="M729.66,-306.2C734.06,-298.19 739.42,-288.44 744.46,-279.26"/>
<polygon fill="black" stroke="black" points="747.6,-280.82 749.34,-270.37 741.46,-277.45 747.6,-280.82"/>
</g>
<!-- Rescue victim -->
<g id="node26" class="node">
<title>Rescue victim</title>
<polygon fill="orange" stroke="black" points="1055.65,-265.88 960.65,-265.88 960.65,-229.88 1055.65,-229.88 1055.65,-265.88"/>
<text text-anchor="middle" x="1008.15" y="-245.08" font-family="Times,serif" font-size="11.00">Rescue victim</text>
</g>
<!-- Search &amp; rescue victim&#45;&gt;Rescue victim -->
<g id="edge25" class="edge">
<title>Search &amp; rescue victim&#45;&gt;Rescue victim</title>
<path fill="none" stroke="black" d="M785.86,-306.48C835.46,-293.63 902.86,-276.17 950.4,-263.85"/>
<polygon fill="black" stroke="black" points="951.42,-267.2 960.23,-261.3 949.67,-260.42 951.42,-267.2"/>
</g>
<!-- Search victim -->
<g id="node18" class="node">
<title>Search victim</title>
<polygon fill="orange" stroke="black" points="807.15,-189.25 713.15,-189.25 713.15,-153.25 807.15,-153.25 807.15,-189.25"/>
<text text-anchor="middle" x="760.15" y="-168.45" font-family="Times,serif" font-size="11.00">Search victim</text>
</g>
<!-- Condition\n[Search victim]&#45;&gt;Search victim -->
<g id="edge17" class="edge">
<title>Condition\n[Search victim]&#45;&gt;Search victim</title>
<path fill="none" stroke="black" d="M760.85,-224.9C760.75,-216.91 760.62,-207.8 760.51,-199.43"/>
<polygon fill="black" stroke="black" points="764.01,-199.3 760.38,-189.35 757.01,-199.4 764.01,-199.3"/>
</g>
<!-- Inverter\n[Victim found?] -->
<g id="node19" class="node">
<title>Inverter\n[Victim found?]</title>
<ellipse fill="ghostwhite" stroke="black" cx="562.15" cy="-94.63" rx="72.25" ry="22.76"/>
<text text-anchor="middle" x="562.15" y="-97.83" font-family="Times,serif" font-size="11.00">Inverter</text>
<text text-anchor="middle" x="562.15" y="-85.83" font-family="Times,serif" font-size="11.00">[Victim found?]</text>
</g>
<!-- Search victim&#45;&gt;Inverter\n[Victim found?] -->
<g id="edge18" class="edge">
<title>Search victim&#45;&gt;Inverter\n[Victim found?]</title>
<path fill="none" stroke="black" d="M714.72,-153.13C685.57,-142.14 647.54,-127.81 616.74,-116.21"/>
<polygon fill="black" stroke="black" points="617.61,-112.79 607.02,-112.54 615.14,-119.34 617.61,-112.79"/>
</g>
<!-- Path planning -->
<g id="node21" class="node">
<title>Path planning</title>
<polygon fill="cyan" stroke="black" points="820.71,-87.17 820.71,-102.08 785.23,-112.63 735.06,-112.63 699.58,-102.08 699.58,-87.17 735.06,-76.63 785.23,-76.63 820.71,-87.17"/>
<text text-anchor="middle" x="760.15" y="-91.83" font-family="Times,serif" font-size="11.00">Path planning</text>
</g>
<!-- Search victim&#45;&gt;Path planning -->
<g id="edge20" class="edge">
<title>Search victim&#45;&gt;Path planning</title>
<path fill="none" stroke="black" d="M760.15,-152.95C760.15,-144.09 760.15,-133.11 760.15,-123.13"/>
<polygon fill="black" stroke="black" points="763.65,-122.84 760.15,-112.84 756.65,-122.84 763.65,-122.84"/>
</g>
<!-- Move to next position -->
<g id="node25" class="node">
<title>Move to next position</title>
<ellipse fill="gray" stroke="black" cx="922.15" cy="-94.63" rx="83.67" ry="18"/>
<text text-anchor="middle" x="922.15" y="-91.83" font-family="Times,serif" font-size="11.00">Move to next position</text>
</g>
<!-- Search victim&#45;&gt;Move to next position -->
<g id="edge24" class="edge">
<title>Search victim&#45;&gt;Move to next position</title>
<path fill="none" stroke="black" d="M797.31,-153.13C821.67,-141.92 853.58,-127.21 879.05,-115.48"/>
<polygon fill="black" stroke="black" points="880.84,-118.51 888.46,-111.14 877.92,-112.15 880.84,-118.51"/>
</g>
<!-- Victim found? -->
<g id="node20" class="node">
<title>Victim found?</title>
<ellipse fill="gray" stroke="black" cx="469.15" cy="-18" rx="55.85" ry="18"/>
<text text-anchor="middle" x="469.15" y="-15.2" font-family="Times,serif" font-size="11.00">Victim found?</text>
</g>
<!-- Inverter\n[Victim found?]&#45;&gt;Victim found? -->
<g id="edge19" class="edge">
<title>Inverter\n[Victim found?]&#45;&gt;Victim found?</title>
<path fill="none" stroke="black" d="M536.73,-73.24C524.38,-63.32 509.51,-51.39 496.87,-41.24"/>
<polygon fill="black" stroke="black" points="498.92,-38.4 488.93,-34.87 494.54,-43.86 498.92,-38.4"/>
</g>
<!-- Dynamic planning -->
<g id="node22" class="node">
<title>Dynamic planning</title>
<ellipse fill="gray" stroke="black" cx="613.15" cy="-18" rx="70.21" ry="18"/>
<text text-anchor="middle" x="613.15" y="-15.2" font-family="Times,serif" font-size="11.00">Dynamic planning</text>
</g>
<!-- Path planning&#45;&gt;Dynamic planning -->
<g id="edge21" class="edge">
<title>Path planning&#45;&gt;Dynamic planning</title>
<path fill="none" stroke="black" d="M729.69,-78.16C707.24,-66.77 676.53,-51.18 652.27,-38.86"/>
<polygon fill="black" stroke="black" points="653.82,-35.72 643.31,-34.32 650.65,-41.96 653.82,-35.72"/>
</g>
<!-- Plan path to unexplored cell -->
<g id="node23" class="node">
<title>Plan path to unexplored cell</title>
<ellipse fill="gray" stroke="black" cx="807.15" cy="-18" rx="105.47" ry="18"/>
<text text-anchor="middle" x="807.15" y="-15.2" font-family="Times,serif" font-size="11.00">Plan path to unexplored cell</text>
</g>
<!-- Path planning&#45;&gt;Plan path to unexplored cell -->
<g id="edge22" class="edge">
<title>Path planning&#45;&gt;Plan path to unexplored cell</title>
<path fill="none" stroke="black" d="M771.05,-76.32C776.96,-66.93 784.39,-55.14 790.97,-44.69"/>
<polygon fill="black" stroke="black" points="794.1,-46.28 796.47,-35.96 788.18,-42.55 794.1,-46.28"/>
</g>
<!-- Plan path home* -->
<g id="node24" class="node">
<title>Plan path home*</title>
<ellipse fill="gray" stroke="black" cx="996.15" cy="-18" rx="66.29" ry="18"/>
<text text-anchor="middle" x="996.15" y="-15.2" font-family="Times,serif" font-size="11.00">Plan path home*</text>
</g>
<!-- Path planning&#45;&gt;Plan path home* -->
<g id="edge23" class="edge">
<title>Path planning&#45;&gt;Plan path home*</title>
<path fill="none" stroke="black" d="M800.18,-80.97C840.08,-68.35 901.49,-48.93 944.92,-35.2"/>
<polygon fill="black" stroke="black" points="946.25,-38.45 954.72,-32.1 944.13,-31.78 946.25,-38.45"/>
</g>
<!-- Victim actually found? -->
<g id="node27" class="node">
<title>Victim actually found?</title>
<ellipse fill="gray" stroke="black" cx="910.15" cy="-171.25" rx="84.58" ry="18"/>
<text text-anchor="middle" x="910.15" y="-168.45" font-family="Times,serif" font-size="11.00">Victim actually found?</text>
</g>
<!-- Rescue victim&#45;&gt;Victim actually found? -->
<g id="edge26" class="edge">
<title>Rescue victim&#45;&gt;Victim actually found?</title>
<path fill="none" stroke="black" d="M985.42,-229.57C971.9,-219.28 954.59,-206.1 939.99,-194.98"/>
<polygon fill="black" stroke="black" points="941.82,-191.98 931.74,-188.7 937.58,-197.54 941.82,-191.98"/>
</g>
<!-- Land where victim found -->
<g id="node28" class="node">
<title>Land where victim found</title>
<ellipse fill="gray" stroke="black" cx="1107.15" cy="-171.25" rx="93.62" ry="18"/>
<text text-anchor="middle" x="1107.15" y="-168.45" font-family="Times,serif" font-size="11.00">Land where victim found</text>
</g>
<!-- Rescue victim&#45;&gt;Land where victim found -->
<g id="edge27" class="edge">
<title>Rescue victim&#45;&gt;Land where victim found</title>
<path fill="none" stroke="black" d="M1031.11,-229.57C1044.67,-219.35 1062,-206.29 1076.69,-195.21"/>
<polygon fill="black" stroke="black" points="1079.11,-197.77 1084.99,-188.96 1074.9,-192.18 1079.11,-197.77"/>
</g>
<!-- Rescued victim -->
<g id="node29" class="node">
<title>Rescued victim</title>
<ellipse fill="gray" stroke="black" cx="1280.15" cy="-171.25" rx="61.17" ry="18"/>
<text text-anchor="middle" x="1280.15" y="-168.45" font-family="Times,serif" font-size="11.00">Rescued victim</text>
</g>
<!-- Rescue victim&#45;&gt;Rescued victim -->
<g id="edge28" class="edge">
<title>Rescue victim&#45;&gt;Rescued victim</title>
<path fill="none" stroke="black" d="M1055.84,-233.8C1103.73,-220.66 1177.37,-200.45 1227.08,-186.81"/>
<polygon fill="black" stroke="black" points="1228.28,-190.11 1237,-184.09 1226.43,-183.36 1228.28,-190.11"/>
</g>
</g>
</svg>
