<?xml version="1.0" encoding="UTF-8" standalone="no"?>
<!DOCTYPE svg PUBLIC "-//W3C//DTD SVG 1.1//EN"
 "http://www.w3.org/Graphics/SVG/1.1/DTD/svg11.dtd">
<!-- Generated by graphviz version 2.43.0 (0)
 -->
<!-- Title: mission Pages: 1 -->
<svg width="1111pt" height="495pt"
 viewBox="0.00 0.00 1111.12 494.51" xmlns="http://www.w3.org/2000/svg" xmlns:xlink="http://www.w3.org/1999/xlink">
<g id="graph0" class="graph" transform="scale(1 1) rotate(0) translate(4 490.51)">
<title>mission</title>
<polygon fill="white" stroke="transparent" points="-4,4 -4,-490.51 1107.12,-490.51 1107.12,4 -4,4"/>
<!-- Mission -->
<g id="node1" class="node">
<title>Mission</title>
<polygon fill="gold" stroke="black" points="379.88,-486.51 294.66,-486.51 272.74,-450.51 357.95,-450.51 379.88,-486.51"/>
<text text-anchor="middle" x="326.31" y="-465.71" font-family="Times,serif" font-size="11.00">Mission</text>
</g>
<!-- Topics2BB -->
<g id="node2" class="node">
<title>Topics2BB</title>
<polygon fill="orange" stroke="black" points="297.81,-414.51 222.81,-414.51 222.81,-378.51 297.81,-378.51 297.81,-414.51"/>
<text text-anchor="middle" x="260.31" y="-393.71" font-family="Times,serif" font-size="11.00">Topics2BB</text>
</g>
<!-- Mission&#45;&gt;Topics2BB -->
<g id="edge1" class="edge">
<title>Mission&#45;&gt;Topics2BB</title>
<path fill="none" stroke="black" d="M310,-450.21C302,-441.73 292.24,-431.37 283.49,-422.09"/>
<polygon fill="black" stroke="black" points="285.84,-419.49 276.44,-414.61 280.75,-424.29 285.84,-419.49"/>
</g>
<!-- Priorities -->
<g id="node6" class="node">
<title>Priorities</title>
<polygon fill="cyan" stroke="black" points="513.93,-389.05 513.93,-403.97 487.21,-414.51 449.41,-414.51 422.69,-403.97 422.69,-389.05 449.41,-378.51 487.21,-378.51 513.93,-389.05"/>
<text text-anchor="middle" x="468.31" y="-393.71" font-family="Times,serif" font-size="11.00">Priorities</text>
</g>
<!-- Mission&#45;&gt;Priorities -->
<g id="edge5" class="edge">
<title>Mission&#45;&gt;Priorities</title>
<path fill="none" stroke="black" d="M358.89,-451.45C380.52,-440.78 408.97,-426.76 431.44,-415.68"/>
<polygon fill="black" stroke="black" points="433.24,-418.7 440.67,-411.14 430.15,-412.42 433.24,-418.7"/>
</g>
<!-- Battery2BB -->
<g id="node3" class="node">
<title>Battery2BB</title>
<ellipse fill="gray" stroke="black" cx="49.31" cy="-324.51" rx="49.12" ry="18"/>
<text text-anchor="middle" x="49.31" y="-321.71" font-family="Times,serif" font-size="11.00">Battery2BB</text>
</g>
<!-- Topics2BB&#45;&gt;Battery2BB -->
<g id="edge2" class="edge">
<title>Topics2BB&#45;&gt;Battery2BB</title>
<path fill="none" stroke="black" d="M222.59,-383C186.68,-371.08 132.6,-353.14 94.43,-340.48"/>
<polygon fill="black" stroke="black" points="95.19,-337.04 84.6,-337.22 92.99,-343.69 95.19,-337.04"/>
</g>
<!-- HomeCoords2BB -->
<g id="node4" class="node">
<title>HomeCoords2BB</title>
<ellipse fill="gray" stroke="black" cx="184.31" cy="-324.51" rx="67.9" ry="18"/>
<text text-anchor="middle" x="184.31" y="-321.71" font-family="Times,serif" font-size="11.00">HomeCoords2BB</text>
</g>
<!-- Topics2BB&#45;&gt;HomeCoords2BB -->
<g id="edge3" class="edge">
<title>Topics2BB&#45;&gt;HomeCoords2BB</title>
<path fill="none" stroke="black" d="M241.52,-378.21C231.93,-369.37 220.11,-358.48 209.71,-348.91"/>
<polygon fill="black" stroke="black" points="211.82,-346.09 202.1,-341.89 207.08,-351.24 211.82,-346.09"/>
</g>
<!-- VictimFound2BB -->
<g id="node5" class="node">
<title>VictimFound2BB</title>
<ellipse fill="gray" stroke="black" cx="336.31" cy="-324.51" rx="66.29" ry="18"/>
<text text-anchor="middle" x="336.31" y="-321.71" font-family="Times,serif" font-size="11.00">VictimFound2BB</text>
</g>
<!-- Topics2BB&#45;&gt;VictimFound2BB -->
<g id="edge4" class="edge">
<title>Topics2BB&#45;&gt;VictimFound2BB</title>
<path fill="none" stroke="black" d="M279.1,-378.21C288.69,-369.37 300.51,-358.48 310.91,-348.91"/>
<polygon fill="black" stroke="black" points="313.54,-351.24 318.52,-341.89 308.8,-346.09 313.54,-351.24"/>
</g>
<!-- Battery check -->
<g id="node7" class="node">
<title>Battery check</title>
<polygon fill="orange" stroke="black" points="515.81,-342.51 420.81,-342.51 420.81,-306.51 515.81,-306.51 515.81,-342.51"/>
<text text-anchor="middle" x="468.31" y="-321.71" font-family="Times,serif" font-size="11.00">Battery check</text>
</g>
<!-- Priorities&#45;&gt;Battery check -->
<g id="edge6" class="edge">
<title>Priorities&#45;&gt;Battery check</title>
<path fill="none" stroke="black" d="M468.31,-378.21C468.31,-370.49 468.31,-361.22 468.31,-352.62"/>
<polygon fill="black" stroke="black" points="471.81,-352.61 468.31,-342.61 464.81,-352.61 471.81,-352.61"/>
</g>
<!-- Search &amp; rescue victim -->
<g id="node14" class="node">
<title>Search &amp; rescue victim</title>
<polygon fill="orange" stroke="black" points="723.81,-342.51 574.81,-342.51 574.81,-306.51 723.81,-306.51 723.81,-342.51"/>
<text text-anchor="middle" x="649.31" y="-321.71" font-family="Times,serif" font-size="11.00">Search &amp; rescue victim</text>
</g>
<!-- Priorities&#45;&gt;Search &amp; rescue victim -->
<g id="edge13" class="edge">
<title>Priorities&#45;&gt;Search &amp; rescue victim</title>
<path fill="none" stroke="black" d="M499.84,-383.32C526.27,-373.09 564.6,-358.27 595.82,-346.2"/>
<polygon fill="black" stroke="black" points="597.2,-349.42 605.26,-342.54 594.67,-342.89 597.2,-349.42"/>
</g>
<!-- Battery low? -->
<g id="node8" class="node">
<title>Battery low?</title>
<ellipse fill="gray" stroke="black" cx="352.31" cy="-247.88" rx="53.54" ry="18"/>
<text text-anchor="middle" x="352.31" y="-245.08" font-family="Times,serif" font-size="11.00">Battery low?</text>
</g>
<!-- Battery check&#45;&gt;Battery low? -->
<g id="edge7" class="edge">
<title>Battery check&#45;&gt;Battery low?</title>
<path fill="none" stroke="black" d="M441.7,-306.39C424.68,-295.44 402.51,-281.18 384.51,-269.59"/>
<polygon fill="black" stroke="black" points="386.35,-266.62 376.04,-264.15 382.56,-272.5 386.35,-266.62"/>
</g>
<!-- Return home -->
<g id="node9" class="node">
<title>Return home</title>
<polygon fill="orange" stroke="black" points="512.81,-265.88 423.81,-265.88 423.81,-229.88 512.81,-229.88 512.81,-265.88"/>
<text text-anchor="middle" x="468.31" y="-245.08" font-family="Times,serif" font-size="11.00">Return home</text>
</g>
<!-- Battery check&#45;&gt;Return home -->
<g id="edge8" class="edge">
<title>Battery check&#45;&gt;Return home</title>
<path fill="none" stroke="black" d="M468.31,-306.2C468.31,-297.35 468.31,-286.36 468.31,-276.38"/>
<polygon fill="black" stroke="black" points="471.81,-276.1 468.31,-266.1 464.81,-276.1 471.81,-276.1"/>
</g>
<!-- Plan path home -->
<g id="node10" class="node">
<title>Plan path home</title>
<ellipse fill="gray" stroke="black" cx="243.31" cy="-171.25" rx="62.58" ry="18"/>
<text text-anchor="middle" x="243.31" y="-168.45" font-family="Times,serif" font-size="11.00">Plan path home</text>
</g>
<!-- Return home&#45;&gt;Plan path home -->
<g id="edge9" class="edge">
<title>Return home&#45;&gt;Plan path home</title>
<path fill="none" stroke="black" d="M427.65,-229.87C423.5,-228.26 419.33,-226.69 415.31,-225.25 375.81,-211.14 330.44,-197.25 296.21,-187.24"/>
<polygon fill="black" stroke="black" points="297,-183.82 286.42,-184.39 295.04,-190.54 297,-183.82"/>
</g>
<!-- Fly home -->
<g id="node11" class="node">
<title>Fly home</title>
<ellipse fill="gray" stroke="black" cx="364.31" cy="-171.25" rx="40.78" ry="18"/>
<text text-anchor="middle" x="364.31" y="-168.45" font-family="Times,serif" font-size="11.00">Fly home</text>
</g>
<!-- Return home&#45;&gt;Fly home -->
<g id="edge10" class="edge">
<title>Return home&#45;&gt;Fly home</title>
<path fill="none" stroke="black" d="M444.45,-229.76C429.27,-218.87 409.51,-204.69 393.41,-193.14"/>
<polygon fill="black" stroke="black" points="395.06,-190.01 384.9,-187.03 390.98,-195.7 395.06,-190.01"/>
</g>
<!-- Land home -->
<g id="node12" class="node">
<title>Land home</title>
<ellipse fill="gray" stroke="black" cx="470.31" cy="-171.25" rx="47.51" ry="18"/>
<text text-anchor="middle" x="470.31" y="-168.45" font-family="Times,serif" font-size="11.00">Land home</text>
</g>
<!-- Return home&#45;&gt;Land home -->
<g id="edge11" class="edge">
<title>Return home&#45;&gt;Land home</title>
<path fill="none" stroke="black" d="M468.77,-229.57C469.01,-220.72 469.31,-209.73 469.57,-199.75"/>
<polygon fill="black" stroke="black" points="473.08,-199.56 469.85,-189.47 466.08,-199.37 473.08,-199.56"/>
</g>
<!-- Terminate -->
<g id="node13" class="node">
<title>Terminate</title>
<ellipse fill="gray" stroke="black" cx="580.31" cy="-171.25" rx="44.5" ry="18"/>
<text text-anchor="middle" x="580.31" y="-168.45" font-family="Times,serif" font-size="11.00">Terminate</text>
</g>
<!-- Return home&#45;&gt;Terminate -->
<g id="edge12" class="edge">
<title>Return home&#45;&gt;Terminate</title>
<path fill="none" stroke="black" d="M494,-229.76C510.5,-218.77 532.02,-204.43 549.45,-192.82"/>
<polygon fill="black" stroke="black" points="551.76,-195.49 558.14,-187.03 547.88,-189.66 551.76,-195.49"/>
</g>
<!-- Takeoff -->
<g id="node15" class="node">
<title>Takeoff</title>
<ellipse fill="gray" stroke="black" cx="565.31" cy="-247.88" rx="34.05" ry="18"/>
<text text-anchor="middle" x="565.31" y="-245.08" font-family="Times,serif" font-size="11.00">Takeoff</text>
</g>
<!-- Search &amp; rescue victim&#45;&gt;Takeoff -->
<g id="edge14" class="edge">
<title>Search &amp; rescue victim&#45;&gt;Takeoff</title>
<path fill="none" stroke="black" d="M629.83,-306.2C617.87,-295.58 602.45,-281.88 589.68,-270.54"/>
<polygon fill="black" stroke="black" points="591.93,-267.85 582.13,-263.83 587.28,-273.09 591.93,-267.85"/>
</g>
<!-- Condition\n[Search victim] -->
<g id="node16" class="node">
<title>Condition\n[Search victim]</title>
<ellipse fill="ghostwhite" stroke="black" cx="690.31" cy="-247.88" rx="72.66" ry="22.76"/>
<text text-anchor="middle" x="690.31" y="-251.08" font-family="Times,serif" font-size="11.00">Condition</text>
<text text-anchor="middle" x="690.31" y="-239.08" font-family="Times,serif" font-size="11.00">[Search victim]</text>
</g>
<!-- Search &amp; rescue victim&#45;&gt;Condition\n[Search victim] -->
<g id="edge15" class="edge">
<title>Search &amp; rescue victim&#45;&gt;Condition\n[Search victim]</title>
<path fill="none" stroke="black" d="M658.82,-306.2C663.22,-298.19 668.58,-288.44 673.62,-279.26"/>
<polygon fill="black" stroke="black" points="676.76,-280.82 678.51,-270.37 670.62,-277.45 676.76,-280.82"/>
</g>
<!-- Rescue victim -->
<g id="node25" class="node">
<title>Rescue victim</title>
<polygon fill="orange" stroke="black" points="875.81,-265.88 780.81,-265.88 780.81,-229.88 875.81,-229.88 875.81,-265.88"/>
<text text-anchor="middle" x="828.31" y="-245.08" font-family="Times,serif" font-size="11.00">Rescue victim</text>
</g>
<!-- Search &amp; rescue victim&#45;&gt;Rescue victim -->
<g id="edge24" class="edge">
<title>Search &amp; rescue victim&#45;&gt;Rescue victim</title>
<path fill="none" stroke="black" d="M690.38,-306.39C716.41,-295.53 750.28,-281.42 777.93,-269.88"/>
<polygon fill="black" stroke="black" points="779.55,-273 787.43,-265.92 776.86,-266.54 779.55,-273"/>
</g>
<!-- Search victim -->
<g id="node17" class="node">
<title>Search victim</title>
<polygon fill="orange" stroke="black" points="737.31,-189.25 643.31,-189.25 643.31,-153.25 737.31,-153.25 737.31,-189.25"/>
<text text-anchor="middle" x="690.31" y="-168.45" font-family="Times,serif" font-size="11.00">Search victim</text>
</g>
<!-- Condition\n[Search victim]&#45;&gt;Search victim -->
<g id="edge16" class="edge">
<title>Condition\n[Search victim]&#45;&gt;Search victim</title>
<path fill="none" stroke="black" d="M690.31,-224.9C690.31,-216.91 690.31,-207.8 690.31,-199.43"/>
<polygon fill="black" stroke="black" points="693.81,-199.35 690.31,-189.35 686.81,-199.35 693.81,-199.35"/>
</g>
<!-- Inverter\n[Victim found?] -->
<g id="node18" class="node">
<title>Inverter\n[Victim found?]</title>
<ellipse fill="ghostwhite" stroke="black" cx="492.31" cy="-94.63" rx="72.25" ry="22.76"/>
<text text-anchor="middle" x="492.31" y="-97.83" font-family="Times,serif" font-size="11.00">Inverter</text>
<text text-anchor="middle" x="492.31" y="-85.83" font-family="Times,serif" font-size="11.00">[Victim found?]</text>
</g>
<!-- Search victim&#45;&gt;Inverter\n[Victim found?] -->
<g id="edge17" class="edge">
<title>Search victim&#45;&gt;Inverter\n[Victim found?]</title>
<path fill="none" stroke="black" d="M644.88,-153.13C615.73,-142.14 577.7,-127.81 546.91,-116.21"/>
<polygon fill="black" stroke="black" points="547.77,-112.79 537.18,-112.54 545.3,-119.34 547.77,-112.79"/>
</g>
<!-- Path planning -->
<g id="node20" class="node">
<title>Path planning</title>
<polygon fill="cyan" stroke="black" points="750.87,-87.17 750.87,-102.08 715.4,-112.63 665.22,-112.63 629.75,-102.08 629.75,-87.17 665.22,-76.63 715.4,-76.63 750.87,-87.17"/>
<text text-anchor="middle" x="690.31" y="-91.83" font-family="Times,serif" font-size="11.00">Path planning</text>
</g>
<!-- Search victim&#45;&gt;Path planning -->
<g id="edge19" class="edge">
<title>Search victim&#45;&gt;Path planning</title>
<path fill="none" stroke="black" d="M690.31,-152.95C690.31,-144.09 690.31,-133.11 690.31,-123.13"/>
<polygon fill="black" stroke="black" points="693.81,-122.84 690.31,-112.84 686.81,-122.84 693.81,-122.84"/>
</g>
<!-- Move to next position -->
<g id="node24" class="node">
<title>Move to next position</title>
<ellipse fill="gray" stroke="black" cx="852.31" cy="-94.63" rx="83.67" ry="18"/>
<text text-anchor="middle" x="852.31" y="-91.83" font-family="Times,serif" font-size="11.00">Move to next position</text>
</g>
<!-- Search victim&#45;&gt;Move to next position -->
<g id="edge23" class="edge">
<title>Search victim&#45;&gt;Move to next position</title>
<path fill="none" stroke="black" d="M727.48,-153.13C751.83,-141.92 783.75,-127.21 809.21,-115.48"/>
<polygon fill="black" stroke="black" points="811.01,-118.51 818.62,-111.14 808.08,-112.15 811.01,-118.51"/>
</g>
<!-- Victim found? -->
<g id="node19" class="node">
<title>Victim found?</title>
<ellipse fill="gray" stroke="black" cx="399.31" cy="-18" rx="55.85" ry="18"/>
<text text-anchor="middle" x="399.31" y="-15.2" font-family="Times,serif" font-size="11.00">Victim found?</text>
</g>
<!-- Inverter\n[Victim found?]&#45;&gt;Victim found? -->
<g id="edge18" class="edge">
<title>Inverter\n[Victim found?]&#45;&gt;Victim found?</title>
<path fill="none" stroke="black" d="M466.9,-73.24C454.54,-63.32 439.67,-51.39 427.03,-41.24"/>
<polygon fill="black" stroke="black" points="429.08,-38.4 419.09,-34.87 424.7,-43.86 429.08,-38.4"/>
</g>
<!-- Dynamic planning -->
<g id="node21" class="node">
<title>Dynamic planning</title>
<ellipse fill="gray" stroke="black" cx="543.31" cy="-18" rx="70.21" ry="18"/>
<text text-anchor="middle" x="543.31" y="-15.2" font-family="Times,serif" font-size="11.00">Dynamic planning</text>
</g>
<!-- Path planning&#45;&gt;Dynamic planning -->
<g id="edge20" class="edge">
<title>Path planning&#45;&gt;Dynamic planning</title>
<path fill="none" stroke="black" d="M659.85,-78.16C637.41,-66.77 606.69,-51.18 582.43,-38.86"/>
<polygon fill="black" stroke="black" points="583.98,-35.72 573.48,-34.32 580.81,-41.96 583.98,-35.72"/>
</g>
<!-- Plan path to unexplored cell -->
<g id="node22" class="node">
<title>Plan path to unexplored cell</title>
<ellipse fill="gray" stroke="black" cx="737.31" cy="-18" rx="105.47" ry="18"/>
<text text-anchor="middle" x="737.31" y="-15.2" font-family="Times,serif" font-size="11.00">Plan path to unexplored cell</text>
</g>
<!-- Path planning&#45;&gt;Plan path to unexplored cell -->
<g id="edge21" class="edge">
<title>Path planning&#45;&gt;Plan path to unexplored cell</title>
<path fill="none" stroke="black" d="M701.21,-76.32C707.13,-66.93 714.55,-55.14 721.13,-44.69"/>
<polygon fill="black" stroke="black" points="724.26,-46.28 726.63,-35.96 718.34,-42.55 724.26,-46.28"/>
</g>
<!-- Plan path home* -->
<g id="node23" class="node">
<title>Plan path home*</title>
<ellipse fill="gray" stroke="black" cx="926.31" cy="-18" rx="66.29" ry="18"/>
<text text-anchor="middle" x="926.31" y="-15.2" font-family="Times,serif" font-size="11.00">Plan path home*</text>
</g>
<!-- Path planning&#45;&gt;Plan path home* -->
<g id="edge22" class="edge">
<title>Path planning&#45;&gt;Plan path home*</title>
<path fill="none" stroke="black" d="M730.34,-80.97C770.24,-68.35 831.66,-48.93 875.08,-35.2"/>
<polygon fill="black" stroke="black" points="876.41,-38.45 884.89,-32.1 874.3,-31.78 876.41,-38.45"/>
</g>
<!-- Stop above victim -->
<g id="node26" class="node">
<title>Stop above victim</title>
<ellipse fill="gray" stroke="black" cx="827.31" cy="-171.25" rx="70.21" ry="18"/>
<text text-anchor="middle" x="827.31" y="-168.45" font-family="Times,serif" font-size="11.00">Stop above victim</text>
</g>
<!-- Rescue victim&#45;&gt;Stop above victim -->
<g id="edge25" class="edge">
<title>Rescue victim&#45;&gt;Stop above victim</title>
<path fill="none" stroke="black" d="M828.08,-229.57C827.96,-220.72 827.81,-209.73 827.68,-199.75"/>
<polygon fill="black" stroke="black" points="831.17,-199.42 827.54,-189.47 824.17,-199.52 831.17,-199.42"/>
</g>
<!-- Land where victim found -->
<g id="node27" class="node">
<title>Land where victim found</title>
<ellipse fill="gray" stroke="black" cx="1009.31" cy="-171.25" rx="93.62" ry="18"/>
<text text-anchor="middle" x="1009.31" y="-168.45" font-family="Times,serif" font-size="11.00">Land where victim found</text>
</g>
<!-- Rescue victim&#45;&gt;Land where victim found -->
<g id="edge26" class="edge">
<title>Rescue victim&#45;&gt;Land where victim found</title>
<path fill="none" stroke="black" d="M869.83,-229.76C897.4,-218.39 933.65,-203.45 962.28,-191.65"/>
<polygon fill="black" stroke="black" points="963.76,-194.82 971.67,-187.77 961.09,-188.35 963.76,-194.82"/>
</g>
</g>
</svg>
